<svg width="32" height="32" viewBox="0 0 32 32" fill="none" xmlns="http://www.w3.org/2000/svg">
<path d="M3.02344 16C3.02344 8.84482 8.84482 3.02344 16 3.02344C23.1552 3.02344 28.9766 8.84482 28.9766 16C28.9766 23.1552 23.1552 28.9766 16 28.9766C8.84482 28.9766 3.02344 23.1552 3.02344 16ZM17.0234 21V17.0234H21C21.2714 17.0234 21.5317 16.9156 21.7237 16.7237C21.9156 16.5317 22.0234 16.2714 22.0234 16C22.0234 15.7286 21.9156 15.4683 21.7237 15.2763C21.5317 15.0844 21.2714 14.9766 21 14.9766H17.0234V11C17.0234 10.7286 16.9156 10.4683 16.7237 10.2763C16.5317 10.0844 16.2714 9.97656 16 9.97656C15.7286 9.97656 15.4683 10.0844 15.2763 10.2763C15.0844 10.4683 14.9766 10.7286 14.9766 11V14.9766H11C10.7286 14.9766 10.4683 15.0844 10.2763 15.2763C10.0844 15.4683 9.97656 15.7286 9.97656 16C9.97656 16.2714 10.0844 16.5317 10.2763 16.7237C10.4683 16.9156 10.7286 17.0234 11 17.0234H14.9766V21C14.9766 21.2714 15.0844 21.5317 15.2763 21.7237C15.4683 21.9156 15.7286 22.0234 16 22.0234C16.2714 22.0234 16.5317 21.9156 16.7237 21.7237C16.9156 21.5317 17.0234 21.2714 17.0234 21Z" fill="#FFA52F" stroke="#FFA52F" stroke-width="0.046875"/>
</svg>
